<svg xmlns="http://www.w3.org/2000/svg" width="500" height="500" viewBox="0 0 500 500" version="1.1"><path d="M 94 237 L 94 264 253.500 264 L 413 264 413 237 L 413 210 394 210 C 382 210, 375 210.368, 375 211 C 375 211.661, 332.667 212, 250 212 C 167.333 212, 125 211.661, 125 211 C 125 210.376, 119.167 210, 109.500 210 L 94 210 94 237 M 268.015 230.190 C 266.239 230.847, 266 231.830, 266 238.468 C 266 244.496, 266.299 246, 267.500 246 C 268.679 246, 269 244.611, 269 239.500 C 269 235.833, 269.436 233, 270 233 C 270.564 233, 271 235.833, 271 239.500 C 271 245.333, 271.205 246, 273 246 C 274.795 246, 275 245.333, 275 239.500 C 275 235.833, 275.436 233, 276 233 C 276.564 233, 277 235.833, 277 239.500 C 277 244.611, 277.321 246, 278.500 246 C 279.687 246, 279.997 244.590, 279.985 239.250 C 279.976 235.537, 279.599 231.917, 279.147 231.204 C 278.210 229.727, 271.034 229.073, 268.015 230.190 M 182 238 L 182 246 185.300 246 C 189.898 246, 191 244.453, 191 238 C 191 231.547, 189.898 230, 185.300 230 L 182 230 182 238 M 205 238 L 205 246 209 246 C 211.889 246, 213 245.583, 213 244.500 C 213 243.567, 212.056 243, 210.500 243 C 208.667 243, 208 242.467, 208 241 C 208 239.667, 208.667 239, 210 239 C 211.111 239, 212 238.333, 212 237.500 C 212 236.667, 211.111 236, 210 236 C 208.889 236, 208 235.333, 208 234.500 C 208 233.567, 208.944 233, 210.500 233 C 212.056 233, 213 232.433, 213 231.500 C 213 230.417, 211.889 230, 209 230 L 205 230 205 238 M 226.044 231.750 C 226.170 236.828, 228.706 245.512, 230.143 245.789 C 231.353 246.022, 232.057 244.330, 233.261 238.295 C 234.117 234.008, 234.652 230.332, 234.451 230.126 C 234.251 229.921, 233.392 230.019, 232.543 230.345 C 231.533 230.733, 230.995 232.244, 230.985 234.719 C 230.973 237.528, 230.720 238.115, 230 237 C 229.467 236.175, 229.024 234.262, 229.015 232.750 C 229.005 230.979, 228.466 230, 227.500 230 C 226.675 230, 226.020 230.787, 226.044 231.750 M 295.200 231.200 C 294.502 231.898, 294 235.244, 294 239.200 C 294 244.578, 294.314 246, 295.500 246 C 296.333 246, 297 245.111, 297 244 C 297 242.900, 297.492 242, 298.094 242 C 298.695 242, 299.423 242.900, 299.710 244 C 299.998 245.100, 300.856 246, 301.617 246 C 302.659 246, 303 244.323, 303 239.200 C 303 232.003, 302.020 230, 298.500 230 C 297.345 230, 295.860 230.540, 295.200 231.200 M 316 230.378 C 316 230.586, 316.667 232.351, 317.481 234.301 C 318.789 237.432, 318.789 238.260, 317.481 241.391 C 315.642 245.792, 315.645 246, 317.532 246 C 318.375 246, 319.436 244.995, 319.891 243.766 L 320.717 241.533 321.426 243.766 C 321.816 244.995, 322.779 246, 323.567 246 C 325.354 246, 325.363 245.093, 323.620 240.949 C 322.448 238.160, 322.448 237.173, 323.620 234.366 C 325.349 230.228, 325.341 230, 323.468 230 C 322.625 230, 321.573 230.979, 321.131 232.176 L 320.325 234.353 319.756 232.176 C 319.443 230.979, 318.470 230, 317.594 230 C 316.717 230, 316 230.170, 316 230.378 M 186 238 C 186 240.750, 186.450 243, 187 243 C 187.550 243, 188 240.750, 188 238 C 188 235.250, 187.550 233, 187 233 C 186.450 233, 186 235.250, 186 238 M 297 235.917 C 297 238.049, 297.483 239, 298.566 239 C 299.677 239, 300.041 238.221, 299.816 236.327 C 299.356 232.434, 297 232.091, 297 235.917" stroke="none" fill="#f21b1b" fill-rule="evenodd"/><path d="M 0 250.002 L 0 500.004 250.250 499.752 L 500.500 499.500 500.752 249.750 L 501.004 0 250.502 0 L 0 0 0 250.002 M 0.492 250.500 C 0.492 388, 0.608 444.101, 0.750 375.170 C 0.892 306.238, 0.892 193.738, 0.750 125.170 C 0.608 56.601, 0.492 113, 0.492 250.500 M 282.121 123.485 C 278.613 124.278, 271.453 127.014, 266.210 129.564 C 254.111 135.450, 243.506 145.579, 237.603 156.888 C 231.837 167.932, 230.916 172.389, 230.290 192.250 L 229.731 210 211.022 210 L 192.313 210 191.653 194.750 C 191.290 186.362, 190.332 176.408, 189.523 172.629 C 185.822 155.322, 174.364 140.575, 158.872 133.178 C 144.418 126.277, 140.312 125.732, 99 125.237 C 62.720 124.802, 62.483 124.812, 59.750 126.972 L 57 129.145 57 250.501 C 57 361.397, 57.141 371.998, 58.632 373.489 C 60.099 374.956, 64.368 375.087, 100.882 374.784 L 141.500 374.448 149.715 371.692 C 159.168 368.520, 171.221 360.886, 176.540 354.703 C 182.052 348.295, 186.781 339.146, 189.102 330.399 C 190.911 323.582, 191.271 318.632, 191.734 294.250 L 192.271 266 211.135 266 L 230 266 230.015 317.750 C 230.026 357.464, 230.324 370.081, 231.294 372 L 232.559 374.500 254.500 374.500 L 276.441 374.500 277.706 372 C 278.676 370.081, 278.974 357.464, 278.985 317.750 L 279 266 298 266 L 317 266 317 318.277 C 317 363.974, 317.196 370.835, 318.557 372.777 C 320.082 374.956, 320.538 375, 341.357 375 C 356.546 375, 362.942 374.658, 363.800 373.800 C 364.703 372.897, 365 359.422, 365 319.300 L 365 266 371.441 266 C 374.984 266, 378.160 265.550, 378.500 265 C 378.858 264.420, 384.344 264, 391.559 264 L 404 264 404 317.845 C 404 368.982, 404.093 371.774, 405.852 373.366 C 407.481 374.840, 410.209 375.009, 428.573 374.771 L 449.443 374.500 450.725 372 C 451.747 370.006, 451.952 349.754, 451.738 272 C 451.487 180.575, 451.356 174.157, 449.639 169 C 444.924 154.843, 435.833 142.357, 424.769 134.843 C 399.961 117.996, 372.115 117.570, 345 133.622 L 340.500 136.286 334 132.133 C 323.939 125.705, 313.787 122.794, 300 122.384 C 292.420 122.159, 286.326 122.534, 282.121 123.485 M 291.655 166.406 C 286.675 168.250, 283.189 171.518, 280.890 176.500 C 279.363 179.808, 279.040 183.053, 279.022 195.250 L 279 210 298.090 210 L 317.179 210 316.840 194.750 C 316.516 180.229, 316.369 179.277, 313.759 174.837 C 309.037 166.804, 299.945 163.336, 291.655 166.406 M 375.909 167.779 C 371.694 169.981, 370.060 171.584, 368.044 175.495 C 365.715 180.015, 365.473 181.684, 365.178 195.216 L 364.856 210 384.428 210 L 404 210 404 198.049 C 404 191.476, 403.529 183.904, 402.954 181.221 C 401.091 172.534, 392.536 165.079, 384.364 165.022 C 382.639 165.010, 378.834 166.251, 375.909 167.779 M 105 190 L 105 210 124.652 210 L 144.304 210 143.719 197.629 C 143.106 184.647, 141.733 179.514, 137.702 175.135 C 133.866 170.967, 129.974 170, 117.032 170 L 105 170 105 190 M 105 298 L 105 332 114.750 331.994 C 130.375 331.985, 136.799 329.113, 141.194 320.170 C 143.364 315.754, 143.509 314.152, 143.846 290.750 L 144.202 266 136.601 266 C 132.200 266, 129 265.579, 129 265 C 129 264.389, 124.333 264, 117 264 L 105 264 105 298" stroke="none" fill="#545454" fill-rule="evenodd"/><path d="M 282.121 123.485 C 278.613 124.278, 271.453 127.014, 266.210 129.564 C 254.111 135.450, 243.506 145.579, 237.603 156.888 C 231.837 167.932, 230.916 172.389, 230.290 192.250 L 229.731 210 211.022 210 L 192.313 210 191.653 194.750 C 191.290 186.362, 190.332 176.408, 189.523 172.629 C 185.822 155.322, 174.364 140.575, 158.872 133.178 C 144.418 126.277, 140.312 125.732, 99 125.237 C 62.720 124.802, 62.483 124.812, 59.750 126.972 L 57 129.145 57 250.501 C 57 361.397, 57.141 371.998, 58.632 373.489 C 60.099 374.956, 64.368 375.087, 100.882 374.784 L 141.500 374.448 149.715 371.692 C 159.168 368.520, 171.221 360.886, 176.540 354.703 C 182.052 348.295, 186.781 339.146, 189.102 330.399 C 190.911 323.582, 191.271 318.632, 191.734 294.250 L 192.271 266 211.135 266 L 230 266 230.015 317.750 C 230.026 357.464, 230.324 370.081, 231.294 372 L 232.559 374.500 254.500 374.500 L 276.441 374.500 277.706 372 C 278.676 370.081, 278.974 357.464, 278.985 317.750 L 279 266 298 266 L 317 266 317 318.277 C 317 363.974, 317.196 370.835, 318.557 372.777 C 320.082 374.956, 320.538 375, 341.357 375 C 356.546 375, 362.942 374.658, 363.800 373.800 C 364.703 372.897, 365 359.422, 365 319.300 L 365 266 371.441 266 C 374.984 266, 378.160 265.550, 378.500 265 C 378.911 264.335, 337.177 264, 254.059 264 C 171.353 264, 129 264.339, 129 265 C 129 265.579, 132.200 266, 136.601 266 L 144.202 266 143.846 290.750 C 143.509 314.152, 143.364 315.754, 141.194 320.170 C 136.799 329.113, 130.375 331.985, 114.750 331.994 L 105 332 105 298 L 105 264 99.500 264 L 94 264 94 237 L 94 210 99.500 210 L 105 210 105 190 L 105 170 117.032 170 C 129.974 170, 133.866 170.967, 137.702 175.135 C 141.733 179.514, 143.106 184.647, 143.719 197.629 L 144.304 210 134.652 210 C 128.884 210, 125 210.402, 125 211 C 125 211.661, 167.333 212, 250 212 C 332.667 212, 375 211.661, 375 211 C 375 210.450, 372.718 210, 369.928 210 L 364.856 210 365.178 195.250 C 365.566 177.492, 367.233 172.706, 374.520 168.435 C 383.359 163.256, 391.936 164.602, 398.430 172.190 C 402.831 177.331, 404 182.757, 404 198.049 L 404 210 408.500 210 L 413 210 413 237 L 413 264 408.500 264 L 404 264 404 317.845 C 404 368.982, 404.093 371.774, 405.852 373.366 C 407.481 374.840, 410.209 375.009, 428.573 374.771 L 449.443 374.500 450.725 372 C 451.747 370.006, 451.952 349.754, 451.738 272 C 451.487 180.575, 451.356 174.157, 449.639 169 C 444.924 154.843, 435.833 142.357, 424.769 134.843 C 399.961 117.996, 372.115 117.570, 345 133.622 L 340.500 136.286 334 132.133 C 323.939 125.705, 313.787 122.794, 300 122.384 C 292.420 122.159, 286.326 122.534, 282.121 123.485 M 291.655 166.406 C 286.675 168.250, 283.189 171.518, 280.890 176.500 C 279.363 179.808, 279.040 183.053, 279.022 195.250 L 279 210 298.090 210 L 317.179 210 316.840 194.750 C 316.516 180.229, 316.369 179.277, 313.759 174.837 C 309.037 166.804, 299.945 163.336, 291.655 166.406 M 268.015 230.190 C 266.239 230.847, 266 231.830, 266 238.468 C 266 244.496, 266.299 246, 267.500 246 C 268.679 246, 269 244.611, 269 239.500 C 269 235.833, 269.436 233, 270 233 C 270.564 233, 271 235.833, 271 239.500 C 271 245.333, 271.205 246, 273 246 C 274.795 246, 275 245.333, 275 239.500 C 275 235.833, 275.436 233, 276 233 C 276.564 233, 277 235.833, 277 239.500 C 277 244.611, 277.321 246, 278.500 246 C 279.687 246, 279.997 244.590, 279.985 239.250 C 279.976 235.537, 279.599 231.917, 279.147 231.204 C 278.210 229.727, 271.034 229.073, 268.015 230.190 M 182 238 L 182 246 185.300 246 C 189.898 246, 191 244.453, 191 238 C 191 231.547, 189.898 230, 185.300 230 L 182 230 182 238 M 205 238 L 205 246 209 246 C 211.889 246, 213 245.583, 213 244.500 C 213 243.567, 212.056 243, 210.500 243 C 208.667 243, 208 242.467, 208 241 C 208 239.667, 208.667 239, 210 239 C 211.111 239, 212 238.333, 212 237.500 C 212 236.667, 211.111 236, 210 236 C 208.889 236, 208 235.333, 208 234.500 C 208 233.567, 208.944 233, 210.500 233 C 212.056 233, 213 232.433, 213 231.500 C 213 230.417, 211.889 230, 209 230 L 205 230 205 238 M 226.044 231.750 C 226.170 236.828, 228.706 245.512, 230.143 245.789 C 231.353 246.022, 232.057 244.330, 233.261 238.295 C 234.117 234.008, 234.652 230.332, 234.451 230.126 C 234.251 229.921, 233.392 230.019, 232.543 230.345 C 231.533 230.733, 230.995 232.244, 230.985 234.719 C 230.973 237.528, 230.720 238.115, 230 237 C 229.467 236.175, 229.024 234.262, 229.015 232.750 C 229.005 230.979, 228.466 230, 227.500 230 C 226.675 230, 226.020 230.787, 226.044 231.750 M 295.200 231.200 C 294.502 231.898, 294 235.244, 294 239.200 C 294 244.578, 294.314 246, 295.500 246 C 296.333 246, 297 245.111, 297 244 C 297 242.900, 297.492 242, 298.094 242 C 298.695 242, 299.423 242.900, 299.710 244 C 299.998 245.100, 300.856 246, 301.617 246 C 302.659 246, 303 244.323, 303 239.200 C 303 232.003, 302.020 230, 298.500 230 C 297.345 230, 295.860 230.540, 295.200 231.200 M 316 230.378 C 316 230.586, 316.667 232.351, 317.481 234.301 C 318.789 237.432, 318.789 238.260, 317.481 241.391 C 315.642 245.792, 315.645 246, 317.532 246 C 318.375 246, 319.436 244.995, 319.891 243.766 L 320.717 241.533 321.426 243.766 C 321.816 244.995, 322.779 246, 323.567 246 C 325.354 246, 325.363 245.093, 323.620 240.949 C 322.448 238.160, 322.448 237.173, 323.620 234.366 C 325.349 230.228, 325.341 230, 323.468 230 C 322.625 230, 321.573 230.979, 321.131 232.176 L 320.325 234.353 319.756 232.176 C 319.443 230.979, 318.470 230, 317.594 230 C 316.717 230, 316 230.170, 316 230.378 M 186 238 C 186 240.750, 186.450 243, 187 243 C 187.550 243, 188 240.750, 188 238 C 188 235.250, 187.550 233, 187 233 C 186.450 233, 186 235.250, 186 238 M 297 235.917 C 297 238.049, 297.483 239, 298.566 239 C 299.677 239, 300.041 238.221, 299.816 236.327 C 299.356 232.434, 297 232.091, 297 235.917" stroke="none" fill="#faf9f9" fill-rule="evenodd"/></svg>